<?xml version="1.0" encoding="UTF-8" standalone="no"?>
<!-- Created with Inkscape (http://www.inkscape.org/) -->

<svg
   xmlns:dc="http://purl.org/dc/elements/1.1/"
   xmlns:cc="http://creativecommons.org/ns#"
   xmlns:rdf="http://www.w3.org/1999/02/22-rdf-syntax-ns#"
   xmlns:svg="http://www.w3.org/2000/svg"
   xmlns="http://www.w3.org/2000/svg"
   xmlns:sodipodi="http://sodipodi.sourceforge.net/DTD/sodipodi-0.dtd"
   xmlns:inkscape="http://www.inkscape.org/namespaces/inkscape"
   width="824"
   height="233.67896"
   viewBox="0 0 824.00001 233.67895"
   id="svg2"
   version="1.1"
   inkscape:version="0.91 r13725"
   sodipodi:docname="txid.svg">
  <defs
     id="defs4">
    <marker
       inkscape:stockid="Arrow2Send"
       orient="auto"
       refY="0"
       refX="0"
       id="Arrow2Send"
       style="overflow:visible"
       inkscape:isstock="true">
      <path
         id="path5557"
         style="fill:#808080;fill-opacity:1;fill-rule:evenodd;stroke:#808080;stroke-width:0.625;stroke-linejoin:round;stroke-opacity:1"
         d="M 8.7185878,4.0337352 -2.2072895,0.01601326 8.7185884,-4.0017078 c -1.7454984,2.3720609 -1.7354408,5.6174519 -6e-7,8.035443 z"
         transform="matrix(-0.3,0,0,-0.3,0.69,0)"
         inkscape:connector-curvature="0" />
    </marker>
    <marker
       inkscape:stockid="Arrow2Send"
       orient="auto"
       refY="0"
       refX="0"
       id="Arrow2Send-6"
       style="overflow:visible"
       inkscape:isstock="true">
      <path
         inkscape:connector-curvature="0"
         id="path5557-0"
         style="fill:#808080;fill-opacity:1;fill-rule:evenodd;stroke:#808080;stroke-width:0.625;stroke-linejoin:round;stroke-opacity:1"
         d="M 8.7185878,4.0337352 -2.2072895,0.01601326 8.7185884,-4.0017078 c -1.7454984,2.3720609 -1.7354408,5.6174519 -6e-7,8.035443 z"
         transform="matrix(-0.3,0,0,-0.3,0.69,0)" />
    </marker>
    <marker
       inkscape:stockid="Arrow2Send"
       orient="auto"
       refY="0"
       refX="0"
       id="Arrow2Send-6-4"
       style="overflow:visible"
       inkscape:isstock="true">
      <path
         inkscape:connector-curvature="0"
         id="path5557-0-3"
         style="fill:#808080;fill-opacity:1;fill-rule:evenodd;stroke:#808080;stroke-width:0.625;stroke-linejoin:round;stroke-opacity:1"
         d="M 8.7185878,4.0337352 -2.2072895,0.01601326 8.7185884,-4.0017078 c -1.7454984,2.3720609 -1.7354408,5.6174519 -6e-7,8.035443 z"
         transform="matrix(-0.3,0,0,-0.3,0.69,0)" />
    </marker>
  </defs>
  <sodipodi:namedview
     id="base"
     pagecolor="#ffffff"
     bordercolor="#666666"
     borderopacity="1.0"
     inkscape:pageopacity="0.0"
     inkscape:pageshadow="2"
     inkscape:zoom="1.979899"
     inkscape:cx="542.69835"
     inkscape:cy="130.65937"
     inkscape:document-units="px"
     inkscape:current-layer="g6586"
     showgrid="false"
     units="px"
     inkscape:window-width="1918"
     inkscape:window-height="1078"
     inkscape:window-x="0"
     inkscape:window-y="0"
     inkscape:window-maximized="0"
     fit-margin-top="0"
     fit-margin-left="0"
     fit-margin-right="0"
     fit-margin-bottom="0" />
  <metadata
     id="metadata7">
    <rdf:RDF>
      <cc:Work
         rdf:about="">
        <dc:format>image/svg+xml</dc:format>
        <dc:type
           rdf:resource="http://purl.org/dc/dcmitype/StillImage" />
        <dc:title></dc:title>
      </cc:Work>
    </rdf:RDF>
  </metadata>
  <g
     inkscape:label="Layer 1"
     inkscape:groupmode="layer"
     id="layer1"
     transform="translate(-8.7184922,-732.31517)">
    <g
       id="g4172"
       style="opacity:0.5;stroke:#808080"
       transform="matrix(-0.52138014,0,0,0.52138014,297.28428,464.18228)">
      <path
         inkscape:connector-curvature="0"
         id="path4168"
         d="m 137.38075,783.6617 296.47976,0"
         style="fill:none;fill-rule:evenodd;stroke:#808080;stroke-width:3.00000024;stroke-linecap:butt;stroke-linejoin:miter;stroke-miterlimit:4;stroke-dasharray:none;stroke-opacity:1"
         sodipodi:nodetypes="cc" />
      <path
         inkscape:connector-curvature="0"
         id="path4170"
         d="m 280.82241,783.6617 0,134.35029 152.53303,0"
         style="fill:none;fill-rule:evenodd;stroke:#808080;stroke-width:3.00000024;stroke-linecap:butt;stroke-linejoin:miter;stroke-miterlimit:4;stroke-dasharray:none;stroke-opacity:1"
         sodipodi:nodetypes="ccc" />
    </g>
    <rect
       style="opacity:0.5;fill:#e09500;fill-opacity:1;stroke:none;stroke-width:1.60000002;stroke-miterlimit:4;stroke-dasharray:none;stroke-dashoffset:0;stroke-opacity:1"
       id="rect4136"
       width="40.02718"
       height="40.02718"
       x="-265.42053"
       y="852.49097"
       transform="scale(-1,1)" />
    <rect
       style="opacity:0.5;fill:#808080;fill-opacity:1;stroke:none;stroke-width:1.60000002;stroke-miterlimit:4;stroke-dasharray:none;stroke-dashoffset:0;stroke-opacity:1"
       id="rect4136-3"
       width="40.027187"
       height="40.027187"
       x="-71.034416"
       y="852.49097"
       transform="scale(-1,1)" />
    <rect
       style="opacity:0.5;fill:#808080;fill-opacity:1;stroke:none;stroke-width:1.60000002;stroke-miterlimit:4;stroke-dasharray:none;stroke-dashoffset:0;stroke-opacity:1"
       id="rect4136-3-6"
       width="40.027191"
       height="40.027191"
       x="-71.341316"
       y="922.79919"
       transform="scale(-1,1)" />
    <path
       style="opacity:1;fill:#008000;fill-opacity:1;stroke:none"
       id="path6546"
       d="m 84.100065,874.77083 c -0.655702,-0.0116 -1.310994,0.0687 -1.943383,0.23926 -0.385852,0.13122 -0.852071,0.15997 -1.204448,0.38202 -0.33638,0.11901 -0.623869,0.2977 -0.913858,0.49498 -0.276358,0.18027 -0.617892,0.31981 -0.839113,0.57347 0.08999,0.13083 -0.140735,0.49475 -0.192085,0.66664 -0.03213,0.31027 -0.17928,0.69618 -0.08263,1.00263 0.0657,0.27644 0.117109,0.6081 0.287318,0.84552 0.168096,0.32577 0.426547,0.5872 0.628755,0.89685 0.155599,0.17078 0.289244,0.48938 0.475635,0.58835 0.305343,0.22556 0.586046,0.48916 0.913735,0.68357 0.306925,0.16443 0.591324,0.32947 0.935019,0.39615 0.441557,0.0657 0.889574,0.0652 1.334979,0.069 0.223275,-0.0656 0.471005,-0.12403 0.666731,-0.27902 0.245454,-0.14449 0.498274,-0.31832 0.684432,-0.53921 0.18385,-0.20719 0.247555,-0.4515 0.347154,-0.7119 0.157589,-0.39552 0.202572,-0.81778 0.233834,-1.23853 0.0289,-0.51896 0.02653,-1.03899 0.02653,-1.55855 -0.05928,-0.4751 0.08835,-0.99391 -0.02539,-1.46057 -0.06131,-0.26465 -0.219999,-0.52097 -0.359947,-0.77365 -0.150785,-0.15191 -0.270605,-0.38489 -0.451271,-0.48731 -0.240529,-0.13049 -0.494144,-0.23157 -0.771503,-0.27858 -0.199459,-0.0294 -0.400983,-0.0379 -0.602055,-0.048 0,0 0.115043,-2.18398 0.115043,-2.18398 l 0,0 c 0.302621,0.0167 0.60582,0.0323 0.904879,0.0853 0.57341,0.11816 1.098525,0.32847 1.601301,0.62913 0.447863,0.33913 0.813831,0.75012 1.117206,1.22464 0.266757,0.4827 0.527678,0.98379 0.613063,1.53524 0.06508,0.58417 0.04193,1.17042 0.04572,1.7578 -1.2e-5,0.57591 0.002,1.15234 -0.03305,1.72745 -0.0504,0.63147 -0.137175,1.26184 -0.373101,1.85477 -0.206499,0.53276 -0.43661,1.03239 -0.827981,1.45915 -0.350083,0.34281 -0.725201,0.66939 -1.157965,0.90464 -0.553266,0.29758 -1.132991,0.55173 -1.77303,0.56812 -0.599383,-0.004 -1.202776,-0.0116 -1.793821,-0.1219 -0.583274,-0.13836 -1.108321,-0.3787 -1.624144,-0.68087 -0.368946,-0.23912 -0.711499,-0.51132 -1.056787,-0.78202 -0.413297,-0.33924 -0.737862,-0.74112 -1.026443,-1.19096 -0.166242,-0.3789 -0.602198,-0.629 -0.714396,-1.04892 -0.243986,-0.51008 -0.449548,-1.04183 -0.514875,-1.60803 -0.04745,-0.63638 -4.59e-4,-1.27573 0.171158,-1.89327 0.186004,-0.57513 0.377905,-1.17304 0.799906,-1.62151 0.334613,-0.29291 0.692991,-0.56837 1.089831,-0.77173 0.383435,-0.25891 0.774562,-0.49482 1.207551,-0.66256 0.507222,-0.22403 1.034086,-0.39905 1.576292,-0.51793 0.816741,-0.21492 1.659577,-0.32393 2.505312,-0.31267 0,0 0,2.18698 0,2.18698 z"
       inkscape:connector-curvature="0" />
    <path
       style="opacity:1;fill:#008000;fill-opacity:1;stroke:none"
       id="path6548"
       d="m 82.954537,874.78412 c 0.524188,-0.37831 1.03135,-0.7926 1.489466,-1.25004 0.276664,-0.31577 0.461732,-0.68601 0.708328,-1.02401 0.305926,-0.38226 0.714927,-0.66278 1.046359,-1.01798 0.34443,-0.29559 0.722845,-0.5488 1.086945,-0.8191 0.263033,-0.22925 0.506857,-0.47949 0.763196,-0.71713 0.268349,-0.27304 0.534299,-0.54955 0.812557,-0.81316 0.270083,-0.27672 0.539206,-0.55544 0.820484,-0.8214 0.231823,-0.20961 0.404419,-0.43515 0.57008,-0.69765 0.247495,-0.36265 0.568448,-0.66355 0.8486,-0.99809 0.26526,-0.29328 0.577856,-0.54464 0.835207,-0.84459 0.466706,-0.51102 0.878567,-0.80527 1.581259,-0.93049 0.788675,-0.0119 1.277615,0.48538 1.74167,1.04071 0.315776,0.24771 0.438011,0.66052 0.709606,0.94225 0.226986,0.31415 0.505714,0.58369 0.75655,0.87953 0.310525,0.39169 0.629948,0.77527 0.946293,1.16213 0.259489,0.28419 0.535512,0.55195 0.798407,0.8332 0.274394,0.26887 0.551706,0.53588 0.816134,0.81513 0,0 -1.607909,1.48241 -1.607909,1.48241 l 0,0 c -0.251753,-0.29428 -0.558421,-0.54061 -0.823301,-0.82291 -0.278577,-0.32401 -0.610151,-0.60189 -0.883315,-0.93197 -0.300918,-0.37819 -0.616891,-0.74465 -0.91524,-1.12463 -0.262465,-0.31037 -0.553496,-0.59558 -0.793494,-0.92432 -0.239895,-0.31243 -0.422629,-0.65998 -0.704728,-0.93622 -0.369797,-0.51258 -0.40672,-0.20062 0.203652,-0.24198 0.407246,-0.2026 -0.08585,-9e-4 -0.217738,0.23967 -0.259486,0.27413 -0.531766,0.53585 -0.797773,0.80292 -0.226098,0.25318 -0.464192,0.49392 -0.669898,0.7639 -0.268591,0.39769 -0.558472,0.77451 -0.912797,1.09998 -0.293009,0.25051 -0.539157,0.55487 -0.81879,0.81982 -0.295439,0.25316 -0.542809,0.56119 -0.827187,0.82656 -0.321853,0.27504 -0.599261,0.60174 -0.93766,0.85954 -0.277542,0.19947 -0.550115,0.4089 -0.8309,0.59885 -0.274125,0.2685 -0.563817,0.52397 -0.843755,0.78332 -0.325241,0.41399 -0.537688,0.91242 -0.930837,1.27842 -0.599078,0.5794 -1.237248,1.12824 -1.934413,1.58617 0,0 -1.085058,-1.89884 -1.085058,-1.89884 z"
       inkscape:connector-curvature="0" />
    <path
       style="opacity:1;fill:#008000;fill-opacity:1;stroke:none"
       id="path6550"
       d="m 91.652826,869.34626 c 0.446373,0.56883 0.874978,1.15787 1.36972,1.68645 0.29009,0.31187 0.558926,0.65482 0.882012,0.93428 0.276972,0.2628 0.521814,0.56415 0.812949,0.81171 0.184898,0.1784 0.350371,0.3781 0.546014,0.54509 0,0 -1.480137,1.61002 -1.480137,1.61002 l 0,0 c -0.1862,-0.17581 -0.369213,-0.35664 -0.544033,-0.54331 -0.282629,-0.26625 -0.553237,-0.54517 -0.824551,-0.82241 -0.351011,-0.33546 -0.68481,-0.69016 -1.003384,-1.05648 -0.509956,-0.56235 -0.97948,-1.16124 -1.438681,-1.76526 0,0 1.680091,-1.40009 1.680091,-1.40009 z"
       inkscape:connector-curvature="0" />
    <path
       style="opacity:1;fill:#008000;fill-opacity:1;stroke:none"
       id="path6546-3"
       d="m 82.198784,944.46079 c -0.655699,-0.0116 -1.310993,0.0687 -1.943381,0.23924 -0.385853,0.13124 -0.852069,0.15999 -1.204448,0.38204 -0.336382,0.119 -0.62387,0.29771 -0.91386,0.49498 -0.276356,0.18028 -0.617889,0.3198 -0.839111,0.57348 0.08999,0.13082 -0.140735,0.49475 -0.192085,0.66662 -0.03213,0.31028 -0.17928,0.69619 -0.08264,1.00265 0.0657,0.27643 0.117108,0.60807 0.287316,0.84552 0.168099,0.32576 0.426551,0.58719 0.628756,0.89682 0.1556,0.17081 0.289244,0.4894 0.475635,0.58837 0.305343,0.22556 0.586049,0.48917 0.913736,0.68356 0.306926,0.16443 0.591322,0.32947 0.935018,0.39616 0.441559,0.0657 0.889574,0.0652 1.334981,0.069 0.223274,-0.0657 0.471002,-0.12404 0.66673,-0.27902 0.245453,-0.14452 0.498274,-0.31835 0.684431,-0.53922 0.183853,-0.20717 0.247556,-0.4515 0.347155,-0.7119 0.157588,-0.39552 0.202573,-0.81779 0.233833,-1.23853 0.02889,-0.51895 0.02653,-1.03898 0.02653,-1.55854 -0.05928,-0.47512 0.08835,-0.99391 -0.02539,-1.46058 -0.06131,-0.26466 -0.219999,-0.52098 -0.359948,-0.77366 -0.150784,-0.15191 -0.270604,-0.38488 -0.451272,-0.48731 -0.240527,-0.13048 -0.494143,-0.23158 -0.771501,-0.27855 -0.19946,-0.0294 -0.400982,-0.0379 -0.602055,-0.048 0,0 0.115032,-2.18398 0.115032,-2.18398 l 0,0 c 0.302623,0.0166 0.605823,0.0323 0.904881,0.0854 0.573408,0.11815 1.098527,0.32846 1.6013,0.62909 0.447863,0.33917 0.813832,0.75014 1.117206,1.22466 0.266756,0.48268 0.527679,0.98381 0.613064,1.53524 0.06509,0.58418 0.04193,1.17043 0.04572,1.7578 -1e-5,0.5759 0.002,1.15236 -0.03305,1.72743 -0.0504,0.63148 -0.137174,1.26188 -0.373098,1.85478 -0.206502,0.53278 -0.436611,1.03239 -0.827983,1.45915 -0.350082,0.34283 -0.725202,0.66942 -1.157966,0.90465 -0.553265,0.29759 -1.132988,0.55173 -1.773028,0.56813 -0.599383,-0.004 -1.202776,-0.0116 -1.793822,-0.12189 -0.583274,-0.13839 -1.108322,-0.37871 -1.624145,-0.68087 -0.368945,-0.23912 -0.711499,-0.51136 -1.056785,-0.78202 -0.413298,-0.33925 -0.737861,-0.74113 -1.026443,-1.19096 -0.166242,-0.37892 -0.602199,-0.629 -0.714397,-1.04895 -0.243986,-0.51006 -0.449549,-1.04181 -0.514874,-1.60802 -0.04745,-0.63636 -4.6e-4,-1.27572 0.171159,-1.89326 0.186004,-0.57514 0.377904,-1.17303 0.799905,-1.62151 0.334613,-0.2929 0.692989,-0.56837 1.089832,-0.77173 0.383433,-0.25892 0.77456,-0.49482 1.20755,-0.66255 0.507221,-0.22407 1.034084,-0.39907 1.576291,-0.51796 0.81674,-0.21489 1.659578,-0.3239 2.505313,-0.31264 0,0 0,2.18698 0,2.18698 z"
       inkscape:connector-curvature="0" />
    <path
       style="opacity:1;fill:#008000;fill-opacity:1;stroke:none"
       id="path6548-6"
       d="m 81.053257,944.47409 c 0.52419,-0.37831 1.031351,-0.79259 1.489468,-1.25005 0.276664,-0.31579 0.46173,-0.68602 0.708328,-1.024 0.305924,-0.38228 0.714925,-0.6628 1.046357,-1.01799 0.34443,-0.29558 0.722845,-0.5488 1.086946,-0.8191 0.263035,-0.22926 0.506854,-0.47949 0.763195,-0.71713 0.26835,-0.27304 0.5343,-0.54953 0.812557,-0.81316 0.270084,-0.27671 0.539207,-0.55544 0.820483,-0.82139 0.231825,-0.20962 0.404422,-0.43517 0.570081,-0.69765 0.247496,-0.36266 0.568449,-0.66356 0.848602,-0.99809 0.265257,-0.29329 0.577855,-0.54465 0.835206,-0.84459 0.466716,-0.51102 0.878565,-0.80528 1.581257,-0.93049 0.788673,-0.0119 1.277627,0.48536 1.741671,1.04069 0.315775,0.24771 0.43801,0.66052 0.709607,0.94227 0.226985,0.31412 0.505714,0.58368 0.75656,0.87954 0.310502,0.39167 0.629949,0.77525 0.946281,1.1621 0.259491,0.28419 0.535512,0.55196 0.798406,0.83323 0.274396,0.26883 0.551696,0.53585 0.816135,0.81511 0,0 -1.607907,1.48241 -1.607907,1.48241 l 0,0 c -0.251753,-0.29426 -0.558422,-0.54062 -0.823314,-0.82292 -0.278566,-0.324 -0.61014,-0.60187 -0.883304,-0.93195 -0.300906,-0.37819 -0.616879,-0.74466 -0.91524,-1.12465 -0.262465,-0.31037 -0.553495,-0.59557 -0.793487,-0.92431 -0.239902,-0.31245 -0.422635,-0.65998 -0.704735,-0.93621 -0.369797,-0.51257 -0.406722,-0.20064 0.203652,-0.242 0.407248,-0.2026 -0.08586,-8.9e-4 -0.217737,0.23966 -0.259487,0.27416 -0.531766,0.53587 -0.797774,0.80294 -0.226086,0.2532 -0.464193,0.49391 -0.669898,0.7639 -0.268594,0.3977 -0.558469,0.7745 -0.912795,1.09998 -0.293009,0.25051 -0.539157,0.55488 -0.818792,0.81983 -0.295436,0.25313 -0.542808,0.56118 -0.827186,0.82655 -0.321853,0.27506 -0.59926,0.60173 -0.937659,0.85954 -0.277543,0.19946 -0.550114,0.40888 -0.8309,0.59885 -0.274125,0.2685 -0.563818,0.52398 -0.843757,0.78332 -0.325239,0.41399 -0.537687,0.91243 -0.930835,1.27843 -0.599078,0.57937 -1.23725,1.12822 -1.934414,1.58616 0,0 -1.085058,-1.89883 -1.085058,-1.89883 z"
       inkscape:connector-curvature="0" />
    <path
       style="opacity:1;fill:#008000;fill-opacity:1;stroke:none"
       id="path6550-7"
       d="m 89.751553,939.03622 c 0.446362,0.56885 0.874969,1.15786 1.369723,1.68644 0.29008,0.31188 0.558915,0.65483 0.882002,0.93429 0.276972,0.26281 0.521813,0.56416 0.812949,0.81168 0.184897,0.17843 0.350371,0.37813 0.546013,0.54512 0,0 -1.480137,1.61003 -1.480137,1.61003 l 0,0 c -0.1862,-0.17581 -0.369213,-0.35663 -0.544033,-0.54331 -0.282628,-0.26626 -0.553226,-0.54517 -0.824552,-0.82242 -0.351007,-0.33545 -0.684805,-0.69015 -1.00338,-1.05648 -0.509957,-0.56235 -0.979482,-1.16124 -1.43868,-1.76528 0,0 1.680095,-1.40007 1.680095,-1.40007 z"
       inkscape:connector-curvature="0" />
    <rect
       style="opacity:1;fill:#e6e6e6;fill-opacity:1;stroke:none;stroke-width:4.19999981;stroke-miterlimit:4;stroke-dasharray:none;stroke-dashoffset:0;stroke-opacity:1"
       id="rect5698"
       width="319.15717"
       height="122.7963"
       x="403.80524"
       y="843.19781" />
    <rect
       style="opacity:1;fill:#008000;fill-opacity:1;stroke:none;stroke-width:4.19999981;stroke-miterlimit:4;stroke-dasharray:none;stroke-dashoffset:0;stroke-opacity:1"
       id="rect5700"
       width="127.32334"
       height="15.537926"
       x="567.32233"
       y="849.42249" />
    <rect
       style="opacity:1;fill:#008000;fill-opacity:1;stroke:none;stroke-width:4.19999981;stroke-miterlimit:4;stroke-dasharray:none;stroke-dashoffset:0;stroke-opacity:1"
       id="rect5700-5"
       width="127.32334"
       height="15.537926"
       x="460.63086"
       y="869.94763" />
    <path
       style="fill:none;fill-rule:evenodd;stroke:#000000;stroke-width:2.24077678;stroke-linecap:butt;stroke-linejoin:miter;stroke-miterlimit:4;stroke-dasharray:none;stroke-opacity:1"
       d="m 397.71435,851.68607 0,-16.41057 332.17249,0 0,18.10821"
       id="path5717"
       inkscape:connector-curvature="0" />
    <g
       id="g6586"
       transform="matrix(-1.0958816,0,0,-1.0958816,616.9512,1618.3929)">
      <line
         id="line5998"
         y2="725.02795"
         x2="32.966743"
         y1="720.42206"
         x1="28.360807"
         style="stroke:#000000;stroke-width:1.25617111" />
      <line
         id="line6000"
         y2="725.02795"
         x2="57.25272"
         y1="720.42206"
         x1="61.858688"
         style="stroke:#000000;stroke-width:1.25617111" />
      <rect
         id="rect6002"
         height="25.123423"
         width="25.123423"
         y="724.60925"
         x="32.548038" />
      <text
         id="text6004"
         font-weight="bold"
         font-size="14"
         y="-736.03125"
         x="-45.123772"
         style="font-weight:bold;font-size:5.86213207px;font-family:Courier;text-anchor:middle;fill:#ffffff"
         transform="scale(-1,-1)">SHA256</text>
      <line
         id="line6006"
         y2="753.91992"
         x2="43.434853"
         y1="749.73273"
         x1="43.434853"
         style="stroke:#000000;stroke-width:1.25617111" />
      <line
         id="line6008"
         y2="753.91992"
         x2="46.784641"
         y1="749.73273"
         x1="46.784641"
         style="stroke:#000000;stroke-width:1.25617111" />
      <text
         xml:space="preserve"
         style="font-style:normal;font-weight:normal;font-size:18.87457085px;line-height:125%;font-family:sans-serif;letter-spacing:0px;word-spacing:0px;writing-mode:lr-tb;fill:#000000;fill-opacity:1;stroke:none;stroke-width:1px;stroke-linecap:butt;stroke-linejoin:miter;stroke-opacity:1"
         x="-75.836113"
         y="-765.3595"
         id="text6594"
         sodipodi:linespacing="125%"
         transform="scale(-1,-1)"><tspan
           sodipodi:role="line"
           id="tspan6596"
           x="-75.836113"
           y="-765.3595"
           style="font-style:normal;font-variant:normal;font-weight:normal;font-stretch:normal;font-size:29.66003799px;font-family:'Ubuntu Mono';-inkscape-font-specification:'Ubuntu Mono'">TXID</tspan></text>
      <path
         style="fill:none;fill-rule:evenodd;stroke:#e6e6e6;stroke-width:2.09104061;stroke-linecap:butt;stroke-linejoin:miter;stroke-miterlimit:4;stroke-dasharray:2.09104061, 4.18208121;stroke-dashoffset:0;stroke-opacity:1"
         d="m 306.56099,652.3923 -91.25073,0"
         id="path6598"
         inkscape:connector-curvature="0"
         sodipodi:nodetypes="cc" />
      <text
         xml:space="preserve"
         style="font-style:normal;font-weight:normal;font-size:15.96887875px;line-height:125%;font-family:sans-serif;letter-spacing:0px;word-spacing:0px;writing-mode:lr-tb;fill:#333333;fill-opacity:1;stroke:none;stroke-width:1px;stroke-linecap:butt;stroke-linejoin:miter;stroke-opacity:1"
         x="-555.87897"
         y="-793.31427"
         id="text4819"
         sodipodi:linespacing="125%"
         transform="scale(-1,-1)"><tspan
           sodipodi:role="line"
           id="tspan4821"
           x="-555.87897"
           y="-793.31427"
           style="font-style:italic;font-variant:normal;font-weight:normal;font-stretch:normal;font-size:20.53141594px;font-family:sans-serif;-inkscape-font-specification:'sans-serif Italic';fill:#333333">Current</tspan></text>
      <text
         xml:space="preserve"
         style="font-style:normal;font-weight:normal;font-size:15.96887875px;line-height:125%;font-family:sans-serif;letter-spacing:0px;word-spacing:0px;writing-mode:lr-tb;fill:#666666;fill-opacity:1;stroke:none;stroke-width:1px;stroke-linecap:butt;stroke-linejoin:miter;stroke-opacity:1"
         x="-529.66803"
         y="-746.02832"
         id="text5492"
         sodipodi:linespacing="125%"
         transform="scale(-1,-1)"><tspan
           sodipodi:role="line"
           id="tspan5494"
           x="-529.66803"
           y="-746.02832"
           style="font-style:normal;font-variant:normal;font-weight:normal;font-stretch:normal;font-size:11.40634155px;font-family:'Ubuntu Condensed';-inkscape-font-specification:'Ubuntu Condensed, ';fill:#666666"><tspan
   style="fill:#333333"
   id="tspan5516">Input</tspan> - a batch of existing bitcoins</tspan></text>
      <text
         xml:space="preserve"
         style="font-style:normal;font-weight:normal;font-size:15.96887875px;line-height:125%;font-family:sans-serif;letter-spacing:0px;word-spacing:0px;writing-mode:lr-tb;fill:#666666;fill-opacity:1;stroke:none;stroke-width:1px;stroke-linecap:butt;stroke-linejoin:miter;stroke-opacity:1"
         x="-502.10437"
         y="-715.94348"
         id="text5492-9"
         sodipodi:linespacing="125%"
         transform="scale(-1,-1)"><tspan
           sodipodi:role="line"
           id="tspan5494-6"
           x="-502.10437"
           y="-715.94348"
           style="font-style:normal;font-variant:normal;font-weight:normal;font-stretch:normal;font-size:11.40634155px;font-family:'Ubuntu Condensed';-inkscape-font-specification:'Ubuntu Condensed, ';fill:#666666"><tspan
   style="fill:#333333"
   id="tspan5514">Signature</tspan> - unlocks an input so that it can be spent</tspan></text>
      <path
         style="fill:none;fill-rule:evenodd;stroke:#808080;stroke-width:0.91250736;stroke-linecap:butt;stroke-linejoin:miter;stroke-miterlimit:4;stroke-dasharray:none;stroke-opacity:1;marker-end:url(#Arrow2Send)"
         d="m 518.60683,740.9586 0,-39.17529"
         id="path5518"
         inkscape:connector-curvature="0" />
      <path
         style="fill:none;fill-rule:evenodd;stroke:#808080;stroke-width:0.91250736;stroke-linecap:butt;stroke-linejoin:miter;stroke-miterlimit:4;stroke-dasharray:none;stroke-opacity:1;marker-end:url(#Arrow2Send-6)"
         d="m 481.27946,712.35205 0,-19.81809"
         id="path5518-5"
         inkscape:connector-curvature="0"
         sodipodi:nodetypes="cc" />
      <text
         xml:space="preserve"
         style="font-style:normal;font-weight:normal;font-size:15.96887875px;line-height:125%;font-family:sans-serif;letter-spacing:0px;word-spacing:0px;writing-mode:lr-tb;fill:#666666;fill-opacity:1;stroke:none;stroke-width:1px;stroke-linecap:butt;stroke-linejoin:miter;stroke-opacity:1"
         x="1.4200574"
         y="-735.30066"
         id="text5492-9-0"
         sodipodi:linespacing="125%"
         transform="scale(-1,-1)"><tspan
           sodipodi:role="line"
           id="tspan5494-6-2"
           x="1.4200574"
           y="-735.30066"
           style="font-style:normal;font-variant:normal;font-weight:normal;font-stretch:normal;font-size:11.40634155px;font-family:'Ubuntu Condensed';-inkscape-font-specification:'Ubuntu Condensed, ';fill:#666666">Hash all the transaction data to get the TXID</tspan></text>
      <path
         style="fill:none;fill-rule:evenodd;stroke:#808080;stroke-width:0.91250736;stroke-linecap:butt;stroke-linejoin:miter;stroke-miterlimit:4;stroke-dasharray:none;stroke-opacity:1;marker-end:url(#Arrow2Send-6-4)"
         d="M 0.57557334,734.01369 19.011005,720.18711"
         id="path5518-5-5"
         inkscape:connector-curvature="0"
         sodipodi:nodetypes="cc" />
    </g>
  </g>
</svg>
